<svg xmlns="http://www.w3.org/2000/svg" viewBox="0 0 163 81"><defs><style>.cls-1{fill:#e0dc01;}.cls-2{fill:#fff;}</style></defs><title>Asset 9eew</title><g id="Layer_2" data-name="Layer 2"><g id="Layer_2-2" data-name="Layer 2"><path class="cls-1" d="M15.5,28.5a13,13,0,0,1,0-26h132a13,13,0,0,1,0,26Z"/><path class="cls-2" d="M147.5,5a10.5,10.5,0,0,1,0,21H15.5a10.5,10.5,0,0,1,0-21h132m0-5H15.5a15.5,15.5,0,0,0,0,31h132a15.5,15.5,0,0,0,0-31Z"/><path class="cls-1" d="M15.5,78.5a13,13,0,0,1,0-26h132a13,13,0,0,1,0,26Z"/><path class="cls-2" d="M147.5,55a10.5,10.5,0,0,1,0,21H15.5a10.5,10.5,0,0,1,0-21h132m0-5H15.5a15.5,15.5,0,0,0,0,31h132a15.5,15.5,0,0,0,0-31Z"/></g></g></svg>