<?xml version="1.0" standalone="no"?>
<!DOCTYPE svg PUBLIC "-//W3C//DTD SVG 1.1//EN" "http://www.w3.org/Graphics/SVG/1.1/DTD/svg11.dtd">
<svg xmlns="http://www.w3.org/2000/svg" xmlns:xlink="http://www.w3.org/1999/xlink" width="810" zoomAndPan="magnify" viewBox="0 0 810 809.999993" height="810" preserveAspectRatio="xMidYMid meet" version="1.0"><defs><clipPath id="618216f000"><path d="M 200 506 L 530 506 L 530 793.191406 L 200 793.191406 Z M 200 506 " clip-rule="nonzero"/></clipPath><clipPath id="449c62755d"><path d="M 96.007812 156 L 179 156 L 179 431 L 96.007812 431 Z M 96.007812 156 " clip-rule="nonzero"/></clipPath><clipPath id="311c43d90e"><path d="M 96.007812 16.941406 L 714 16.941406 L 714 768 L 96.007812 768 Z M 96.007812 16.941406 " clip-rule="nonzero"/></clipPath></defs><g clip-path="url(#618216f000)"><path fill="#002c2d" d="M 529.332031 506.03125 L 488.167969 783.84375 L 331.097656 767.257812 L 244.628906 793.0625 L 200.90625 544.566406 Z M 529.332031 506.03125 " fill-opacity="1" fill-rule="nonzero"/></g><g clip-path="url(#449c62755d)"><path fill="#002c2d" d="M 178.835938 168.640625 L 149.289062 417.617188 L 105.554688 430.695312 L 96.335938 357.441406 L 127.207031 212.496094 L 124.675781 156.578125 Z M 178.835938 168.640625 " fill-opacity="1" fill-rule="nonzero"/></g><g clip-path="url(#311c43d90e)"><path fill="#002c2d" d="M 501.917969 424.773438 L 470.359375 738.378906 L 96.335938 767.257812 L 158.132812 62.003906 L 515.421875 16.941406 L 713.710938 77.777344 L 669.933594 413.503906 Z M 501.917969 424.773438 " fill-opacity="1" fill-rule="nonzero"/></g><path fill="#2f3651" d="M 636.863281 276.492188 C 629.402344 275.78125 621.039062 274.980469 611.792969 274.09375 C 602.546875 273.210938 592.765625 272.769531 582.460938 272.769531 C 566.8125 272.769531 550.90625 274.09375 534.730469 276.773438 C 518.546875 279.441406 503.523438 284.695312 489.667969 292.503906 C 475.800781 300.332031 463.886719 311.089844 453.933594 324.773438 C 443.976562 338.464844 437.570312 356.152344 434.730469 377.835938 C 432.238281 404.152344 430.203125 425.753906 428.59375 442.636719 C 427 459.53125 425.832031 473.402344 425.121094 484.242188 C 424.414062 495.09375 423.796875 503.804688 423.261719 510.371094 C 422.722656 516.949219 422.28125 523.085938 421.933594 528.769531 C 421.933594 530.1875 421.664062 534.101562 421.128906 540.507812 C 420.59375 546.910156 419.789062 554.375 418.730469 562.910156 C 417.660156 571.445312 416.679688 580.691406 415.796875 590.648438 C 414.898438 600.605469 413.933594 609.851562 412.863281 618.386719 C 411.789062 626.921875 411 634.386719 410.464844 640.789062 C 409.925781 647.195312 409.660156 651.109375 409.660156 652.527344 C 409.660156 655.382812 409.738281 657.78125 409.925781 659.722656 C 410.101562 661.679688 410.195312 663.554688 410.195312 665.324219 C 410.195312 668.179688 408.867188 670.578125 406.203125 672.519531 C 403.535156 674.476562 397.574219 676.699219 388.339844 679.195312 L 247 729.859375 C 243.089844 731.277344 237.929688 733.058594 231.539062 735.191406 C 225.144531 737.320312 218.914062 738.394531 212.871094 738.394531 C 207.886719 738.394531 203.53125 737.148438 199.808594 734.65625 C 196.070312 732.164062 194.207031 727.902344 194.207031 721.859375 L 240.074219 193.292969 C 241.144531 181.554688 242.472656 173.476562 244.078125 169.027344 C 245.675781 164.578125 249.679688 161.65625 256.085938 160.222656 C 288.433594 153.820312 321.863281 147.332031 356.355469 140.753906 C 390.847656 134.175781 424.265625 125.734375 456.625 115.414062 C 459.464844 115.414062 461.15625 115.871094 461.691406 116.753906 C 462.226562 117.640625 462.496094 118.980469 462.496094 120.75 C 462.496094 121.472656 462.402344 122.53125 462.226562 123.949219 C 462.039062 125.371094 461.503906 128.574219 460.632812 133.546875 C 459.746094 138.53125 458.5 146.074219 456.894531 156.21875 C 455.296875 166.347656 453.0625 180.484375 450.21875 198.613281 C 466.566406 185.816406 484.617188 174.078125 504.355469 163.414062 C 524.09375 152.746094 543.910156 143.59375 563.824219 135.945312 C 583.734375 128.304688 602.9375 122.261719 621.429688 117.8125 C 639.917969 113.367188 656.09375 111.140625 669.960938 111.140625 L 636.890625 276.480469 Z M 636.863281 276.492188 " fill-opacity="1" fill-rule="nonzero"/><path fill="#fbec04" d="M 600.820312 254.515625 C 593.355469 253.808594 584.996094 253.003906 575.75 252.117188 C 566.503906 251.234375 556.722656 250.792969 546.417969 250.792969 C 530.765625 250.792969 514.859375 252.117188 498.6875 254.800781 C 482.5 257.464844 467.480469 262.71875 453.625 270.53125 C 439.753906 278.355469 427.84375 289.117188 417.886719 302.796875 C 407.929688 316.492188 401.527344 334.179688 398.683594 355.859375 C 396.191406 382.175781 394.15625 403.777344 392.546875 420.660156 C 390.953125 437.558594 389.789062 451.425781 389.078125 462.265625 C 388.367188 473.121094 387.75 481.828125 387.214844 488.394531 C 386.679688 494.976562 386.238281 501.113281 385.886719 506.792969 C 385.886719 508.214844 385.621094 512.125 385.085938 518.53125 C 384.546875 524.9375 383.746094 532.398438 382.6875 540.9375 C 381.613281 549.472656 380.636719 558.71875 379.75 568.671875 C 378.855469 578.628906 377.890625 587.875 376.816406 596.410156 C 375.746094 604.945312 374.953125 612.410156 374.417969 618.816406 C 373.882812 625.21875 373.613281 629.132812 373.613281 630.550781 C 373.613281 633.40625 373.695312 635.804688 373.882812 637.75 C 374.054688 639.703125 374.148438 641.582031 374.148438 643.347656 C 374.148438 646.203125 372.824219 648.601562 370.15625 650.546875 C 367.492188 652.5 361.527344 654.726562 352.296875 657.21875 L 210.957031 707.882812 C 207.042969 709.300781 201.882812 711.085938 195.492188 713.214844 C 189.101562 715.347656 182.871094 716.417969 176.828125 716.417969 C 171.84375 716.417969 167.488281 715.171875 163.761719 712.679688 C 160.023438 710.1875 158.160156 705.925781 158.160156 699.882812 L 204 171.304688 C 205.074219 159.566406 206.398438 151.488281 208.007812 147.039062 C 209.601562 142.589844 213.609375 139.667969 220.015625 138.234375 C 252.359375 131.828125 285.792969 125.34375 320.285156 118.765625 C 354.773438 112.1875 388.191406 103.746094 420.554688 93.425781 C 423.394531 93.425781 425.082031 93.882812 425.617188 94.765625 C 426.15625 95.652344 426.421875 96.992188 426.421875 98.757812 C 426.421875 99.484375 426.328125 100.542969 426.15625 101.960938 C 425.96875 103.382812 425.429688 106.585938 424.558594 111.554688 C 423.675781 116.542969 422.429688 124.085938 420.820312 134.230469 C 419.226562 144.359375 416.988281 158.496094 414.148438 176.625 C 430.496094 163.828125 448.546875 152.089844 468.28125 141.425781 C 488.019531 130.757812 507.839844 121.605469 527.75 113.953125 C 547.664062 106.316406 566.863281 100.273438 585.355469 95.824219 C 603.847656 91.375 620.019531 89.152344 633.890625 89.152344 L 600.820312 254.492188 Z M 600.820312 254.515625 " fill-opacity="1" fill-rule="nonzero"/><path fill="#ecebcc" d="M 134.203125 512.433594 C 137.484375 509.003906 141.050781 506.792969 140.796875 505.183594 C 137.082031 493.097656 122.597656 503.175781 134.203125 512.433594 Z M 134.203125 512.433594 " fill-opacity="1" fill-rule="nonzero"/><path fill="#ecebcc" d="M 193.589844 311.304688 C 187.800781 315.203125 187.199219 316.183594 191.914062 323.390625 C 197.207031 317.671875 198.414062 316.449219 193.589844 311.304688 Z M 193.589844 311.304688 " fill-opacity="1" fill-rule="nonzero"/><path fill="#ecebcc" d="M 266.578125 367.4375 C 268.988281 364.460938 271.480469 362.707031 271.335938 361.234375 C 267.515625 351.597656 257.707031 360.335938 266.578125 367.4375 Z M 266.578125 367.4375 " fill-opacity="1" fill-rule="nonzero"/><path fill="#ecebcc" d="M 181.277344 104.816406 C 175.847656 108.191406 173.019531 108.78125 178.234375 116.125 C 181.691406 111.074219 187.574219 107.910156 181.277344 104.816406 Z M 181.277344 104.816406 " fill-opacity="1" fill-rule="nonzero"/><path fill="#ecebcc" d="M 220.710938 76.4375 C 217.253906 71.410156 216.035156 71.277344 210.273438 75.539062 C 215.296875 80.75 216.53125 81.621094 220.710938 76.4375 Z M 220.710938 76.4375 " fill-opacity="1" fill-rule="nonzero"/><path fill="#ecebcc" d="M 331.136719 350.058594 C 322.75 351.679688 329.101562 362.050781 336.765625 355.042969 C 334.058594 352.496094 332.730469 350.273438 331.136719 350.058594 Z M 331.136719 350.058594 " fill-opacity="1" fill-rule="nonzero"/><path fill="#ecebcc" d="M 268.707031 414.832031 C 263.199219 417.738281 264.433594 419.1875 267.984375 424.304688 C 273.023438 419.761719 272.6875 418.730469 268.707031 414.832031 Z M 268.707031 414.832031 " fill-opacity="1" fill-rule="nonzero"/><path fill="#ecebcc" d="M 664.28125 100.542969 C 668.378906 105.648438 669.558594 105.460938 673.445312 101.546875 C 670.445312 97.113281 669.277344 96.628906 664.28125 100.542969 Z M 664.28125 100.542969 " fill-opacity="1" fill-rule="nonzero"/><path fill="#ecebcc" d="M 249.800781 255.589844 C 251.71875 253.203125 253.554688 251.890625 253.742188 250.378906 C 251.289062 243.234375 242.671875 250.109375 249.800781 255.589844 Z M 249.800781 255.589844 " fill-opacity="1" fill-rule="nonzero"/><path fill="#ecebcc" d="M 655.785156 258.335938 C 659.429688 262.984375 661.199219 262.878906 663.730469 258.726562 C 662.523438 254.570312 659.429688 255.253906 655.785156 258.335938 Z M 655.785156 258.335938 " fill-opacity="1" fill-rule="nonzero"/><path fill="#ecebcc" d="M 368.199219 657.527344 C 363.148438 658.34375 364.703125 661.574219 367.355469 665.621094 C 371.363281 662.203125 372.355469 659.953125 368.199219 657.527344 Z M 368.199219 657.527344 " fill-opacity="1" fill-rule="nonzero"/><path fill="#ecebcc" d="M 494.574219 20.546875 C 495.617188 20.25 496.367188 19.796875 496.863281 19.285156 L 493.113281 19.753906 C 493.636719 20.238281 494.089844 20.53125 494.558594 20.546875 Z M 494.574219 20.546875 " fill-opacity="1" fill-rule="nonzero"/><path fill="#ecebcc" d="M 594.199219 267.195312 C 592.875 260.894531 582.757812 267.796875 590.554688 270.945312 C 590.714844 271.242188 597.601562 268.695312 594.199219 267.195312 Z M 594.199219 267.195312 " fill-opacity="1" fill-rule="nonzero"/><path fill="#ecebcc" d="M 165.585938 246.785156 C 160.933594 248.167969 161.324219 250.445312 164.78125 254.476562 C 168.425781 251.421875 169.429688 248.59375 165.585938 246.785156 Z M 165.585938 246.785156 " fill-opacity="1" fill-rule="nonzero"/><path fill="#ecebcc" d="M 485.730469 43.070312 C 481.347656 45.46875 482.539062 46.648438 485.40625 50.734375 C 489.320312 47.050781 488.757812 46.21875 485.730469 43.070312 Z M 485.730469 43.070312 " fill-opacity="1" fill-rule="nonzero"/><path fill="#ecebcc" d="M 216.167969 583.839844 C 212.5625 585.273438 213.046875 587.21875 216.035156 590.261719 C 218.714844 587.484375 219.785156 585.019531 216.167969 583.839844 Z M 216.167969 583.839844 " fill-opacity="1" fill-rule="nonzero"/><path fill="#ecebcc" d="M 341.308594 154.140625 C 342.351562 154.300781 343.585938 153.164062 345.554688 152.183594 C 342.515625 145.859375 336.296875 151.753906 341.308594 154.140625 Z M 341.308594 154.140625 " fill-opacity="1" fill-rule="nonzero"/><path fill="#ecebcc" d="M 312.285156 569.410156 C 308.265625 570.265625 309.617188 572.691406 311.910156 575.816406 C 314.761719 573.054688 315.605469 571.03125 312.285156 569.410156 Z M 312.285156 569.410156 " fill-opacity="1" fill-rule="nonzero"/><path fill="#ecebcc" d="M 151.824219 364.515625 C 148.996094 364.929688 148.808594 367.625 149.933594 370.210938 C 154.972656 367.007812 156.941406 366.335938 151.824219 364.515625 Z M 151.824219 364.515625 " fill-opacity="1" fill-rule="nonzero"/><path fill="#ecebcc" d="M 382.335938 473.546875 C 383.476562 472.113281 384.601562 471.3125 384.601562 470.492188 C 383.316406 466.003906 378.035156 469.957031 382.335938 473.546875 Z M 382.335938 473.546875 " fill-opacity="1" fill-rule="nonzero"/><path fill="#ecebcc" d="M 532.519531 206.816406 C 534.90625 209.09375 536.742188 209.855469 537.855469 206.867188 C 536.902344 203.867188 534.972656 204.628906 532.519531 206.816406 Z M 532.519531 206.816406 " fill-opacity="1" fill-rule="nonzero"/><path fill="#ecebcc" d="M 373.9375 253.21875 C 373.347656 252.9375 372.140625 253.941406 370.265625 254.8125 C 373.398438 259.355469 378.035156 256.3125 373.9375 253.21875 Z M 373.9375 253.21875 " fill-opacity="1" fill-rule="nonzero"/><path fill="#ecebcc" d="M 470.964844 244.496094 C 471.671875 244.722656 472.757812 243.769531 474.378906 243.007812 C 472.023438 238.023438 466.714844 241.894531 470.964844 244.496094 Z M 470.964844 244.496094 " fill-opacity="1" fill-rule="nonzero"/><path fill="#ecebcc" d="M 210.246094 637.9375 C 211.546875 636.664062 212.84375 635.964844 212.910156 635.164062 C 211.652344 630.671875 206.359375 634.292969 210.246094 637.9375 Z M 210.246094 637.9375 " fill-opacity="1" fill-rule="nonzero"/><path fill="#ecebcc" d="M 689.605469 133.476562 C 690.863281 134.671875 691.601562 135.890625 692.273438 135.851562 C 696.773438 134.535156 693.371094 129.886719 689.605469 133.476562 Z M 689.605469 133.476562 " fill-opacity="1" fill-rule="nonzero"/><path fill="#ecebcc" d="M 435.683594 308.4375 C 432.789062 309.457031 432.828125 310.621094 434.582031 313.648438 C 436.765625 311.574219 438.496094 309.910156 435.683594 308.4375 Z M 435.683594 308.4375 " fill-opacity="1" fill-rule="nonzero"/><path fill="#ecebcc" d="M 334.941406 140.605469 C 336.898438 143.191406 337.554688 142.964844 339.671875 141.289062 C 338.375 138.558594 337.609375 138.851562 334.941406 140.605469 Z M 334.941406 140.605469 " fill-opacity="1" fill-rule="nonzero"/><path fill="#ecebcc" d="M 393.957031 108.808594 C 397.574219 111.625 399.367188 114.117188 401.269531 114.183594 C 411.65625 111.703125 402.851562 99.980469 393.957031 108.808594 Z M 393.957031 108.808594 " fill-opacity="1" fill-rule="nonzero"/><path fill="#ecebcc" d="M 263.617188 471.136719 C 259.675781 464.960938 258.511719 463.980469 251.53125 469.757812 C 257.011719 476.121094 258.457031 476.324219 263.617188 471.136719 Z M 263.617188 471.136719 " fill-opacity="1" fill-rule="nonzero"/><path fill="#ecebcc" d="M 357.707031 190.640625 C 356.085938 183.257812 351.652344 185.507812 346.039062 190.039062 C 351.238281 195.71875 354.894531 197.125 357.707031 190.640625 Z M 357.707031 190.640625 " fill-opacity="1" fill-rule="nonzero"/><path fill="#ecebcc" d="M 631.730469 97.230469 C 628.046875 91.324219 627.417969 88.253906 619.429688 93.921875 C 624.925781 97.675781 628.367188 104.078125 631.730469 97.230469 Z M 631.730469 97.230469 " fill-opacity="1" fill-rule="nonzero"/><path fill="#ecebcc" d="M 662.617188 140.136719 C 668.085938 136.371094 668.21875 135.046875 663.597656 128.773438 C 657.929688 134.253906 656.992188 135.582031 662.617188 140.136719 Z M 662.617188 140.136719 " fill-opacity="1" fill-rule="nonzero"/><path fill="#ecebcc" d="M 359.519531 266.402344 C 362.277344 263.453125 364.703125 262.019531 364.945312 260.28125 C 363.175781 251.152344 351.90625 258.070312 359.519531 266.402344 Z M 359.519531 266.402344 " fill-opacity="1" fill-rule="nonzero"/><path fill="#ecebcc" d="M 159.753906 657.5 C 160.171875 656.292969 158.039062 654.203125 156.152344 650.988281 C 147.160156 657.179688 155.132812 665.859375 159.753906 657.5 Z M 159.753906 657.5 " fill-opacity="1" fill-rule="nonzero"/><path fill="#ecebcc" d="M 284.171875 191.566406 C 286.796875 193.804688 288.367188 196.109375 289.558594 195.933594 C 298.335938 192.90625 291.21875 183.753906 284.171875 191.566406 Z M 284.171875 191.566406 " fill-opacity="1" fill-rule="nonzero"/><path fill="#ecebcc" d="M 467.71875 171.789062 C 471.539062 175.835938 474.96875 177.898438 477.085938 172.792969 C 474.96875 167.566406 472.839844 167.300781 467.71875 171.789062 Z M 467.71875 171.789062 " fill-opacity="1" fill-rule="nonzero"/><path fill="#ecebcc" d="M 158.363281 730.824219 C 162.597656 735.484375 163.695312 735.269531 167.421875 731.546875 C 164.632812 726.46875 163.453125 726.871094 158.363281 730.824219 Z M 158.363281 730.824219 " fill-opacity="1" fill-rule="nonzero"/><path fill="#ecebcc" d="M 464.71875 613.453125 C 462.683594 615.625 460.402344 617.152344 460.632812 617.984375 C 463.484375 625.863281 471.511719 619.589844 464.71875 613.453125 Z M 464.71875 613.453125 " fill-opacity="1" fill-rule="nonzero"/><path fill="#ecebcc" d="M 454.804688 539.03125 C 449.964844 540.949219 450.394531 543.359375 453.769531 548.023438 C 457.429688 544.191406 459.910156 541.070312 454.804688 539.03125 Z M 454.804688 539.03125 " fill-opacity="1" fill-rule="nonzero"/><path fill="#ecebcc" d="M 267.085938 649.351562 C 264.6875 647.503906 263.242188 645.558594 262.167969 645.746094 C 254.382812 648.640625 261.417969 656.402344 267.085938 649.351562 Z M 267.085938 649.351562 " fill-opacity="1" fill-rule="nonzero"/><path fill="#ecebcc" d="M 468.925781 79.304688 C 472.25 83.269531 475.332031 84.355469 477.289062 80.175781 C 475.828125 75.191406 473.347656 75.484375 468.925781 79.304688 Z M 468.925781 79.304688 " fill-opacity="1" fill-rule="nonzero"/><path fill="#ecebcc" d="M 137.644531 634.761719 C 137.671875 633.328125 136.265625 631.867188 134.792969 629.226562 C 128.09375 633.554688 133.960938 640.683594 137.644531 634.761719 Z M 137.644531 634.761719 " fill-opacity="1" fill-rule="nonzero"/><path fill="#ecebcc" d="M 303.773438 696.53125 C 303.9375 695.273438 302.621094 693.8125 301.296875 691.121094 C 295.09375 695.394531 300.15625 702.722656 303.773438 696.53125 Z M 303.773438 696.53125 " fill-opacity="1" fill-rule="nonzero"/><path fill="#ecebcc" d="M 578.078125 271.347656 C 577.90625 272.488281 579.152344 273.828125 580.210938 275.96875 C 587.097656 272.660156 580.679688 265.894531 578.078125 271.347656 Z M 578.078125 271.347656 " fill-opacity="1" fill-rule="nonzero"/><path fill="#ecebcc" d="M 347.015625 62.417969 C 340.410156 61.496094 346.144531 67.644531 346.988281 69.144531 C 348.839844 66.894531 350.511719 64 347.015625 62.417969 Z M 347.015625 62.417969 " fill-opacity="1" fill-rule="nonzero"/><path fill="#ecebcc" d="M 197.730469 446.402344 C 201.535156 444.941406 201.402344 443.535156 198.722656 439.820312 C 196.164062 442.59375 194.367188 444.738281 197.730469 446.402344 Z M 197.730469 446.402344 " fill-opacity="1" fill-rule="nonzero"/><path fill="#ecebcc" d="M 175.433594 456.140625 C 178.703125 459.667969 179.386719 459.222656 182.226562 456.558594 C 180.027344 453.367188 179.011719 454.226562 175.433594 456.140625 Z M 175.433594 456.140625 " fill-opacity="1" fill-rule="nonzero"/><path fill="#ecebcc" d="M 230.601562 315.980469 C 232.167969 317.214844 233.039062 318.449219 233.921875 318.449219 C 238.8125 317.054688 234.511719 311.292969 230.601562 315.980469 Z M 230.601562 315.980469 " fill-opacity="1" fill-rule="nonzero"/><path fill="#ecebcc" d="M 470.292969 306.84375 C 470.601562 306.199219 469.503906 304.898438 468.566406 302.851562 C 463.621094 306.265625 466.929688 311.304688 470.292969 306.84375 Z M 470.292969 306.84375 " fill-opacity="1" fill-rule="nonzero"/><path fill="#ecebcc" d="M 484.308594 413.050781 C 483.035156 407.890625 477.328125 412.015625 481.414062 416.105469 C 482.863281 414.65625 484.269531 413.894531 484.308594 413.050781 Z M 484.308594 413.050781 " fill-opacity="1" fill-rule="nonzero"/><path fill="#ecebcc" d="M 404.539062 372.808594 C 406.136719 374.242188 406.9375 375.394531 408.011719 375.730469 C 412.59375 374.257812 408.441406 369.207031 404.539062 372.808594 Z M 404.539062 372.808594 " fill-opacity="1" fill-rule="nonzero"/><path fill="#ecebcc" d="M 660.367188 173.394531 C 667.765625 171.933594 668.394531 167.5 662.59375 160.289062 C 654.605469 165.234375 653.332031 169.589844 660.367188 173.394531 Z M 660.367188 173.394531 " fill-opacity="1" fill-rule="nonzero"/><path fill="#ecebcc" d="M 331.058594 681.296875 C 331.363281 679.246094 329.179688 676.820312 327.332031 673.070312 C 315.605469 677.960938 325.253906 690.449219 331.058594 681.296875 Z M 331.058594 681.296875 " fill-opacity="1" fill-rule="nonzero"/><path fill="#ecebcc" d="M 587.324219 356.019531 C 593.410156 352.601562 594.09375 351.664062 589.964844 344.109375 C 584.230469 349.386719 582.929688 350.511719 587.324219 356.019531 Z M 587.324219 356.019531 " fill-opacity="1" fill-rule="nonzero"/><path fill="#ecebcc" d="M 269.699219 187.089844 C 259.316406 192.210938 267.636719 202.125 273.007812 193.9375 C 273.558594 192.851562 271.402344 190.398438 269.699219 187.089844 Z M 269.699219 187.089844 " fill-opacity="1" fill-rule="nonzero"/><path fill="#ecebcc" d="M 513.816406 300.035156 C 516.855469 309.953125 527.335938 302.019531 519.054688 294.234375 C 516.414062 296.996094 513.773438 298.550781 513.816406 300.035156 Z M 513.816406 300.035156 " fill-opacity="1" fill-rule="nonzero"/><path fill="#ecebcc" d="M 135.757812 697.617188 C 140.03125 702.1875 143.007812 706.851562 146.4375 700.605469 C 144.210938 694.75 142.550781 693.355469 135.757812 697.617188 Z M 135.757812 697.617188 " fill-opacity="1" fill-rule="nonzero"/><path fill="#ecebcc" d="M 454.871094 298.804688 C 453.839844 298.199219 451.507812 299.796875 448.089844 300.988281 C 452.472656 310.394531 462.144531 304.804688 454.871094 298.804688 Z M 454.871094 298.804688 " fill-opacity="1" fill-rule="nonzero"/><path fill="#ecebcc" d="M 427.414062 640.964844 C 424.613281 638.566406 423.152344 636.339844 421.773438 636.382812 C 413.613281 639.183594 419.949219 647.570312 427.414062 640.964844 Z M 427.414062 640.964844 " fill-opacity="1" fill-rule="nonzero"/><path fill="#ecebcc" d="M 522.203125 237.433594 C 516.816406 241.558594 517.070312 242.617188 520.730469 246.824219 C 526.449219 244.359375 525.339844 242.832031 522.203125 237.433594 Z M 522.203125 237.433594 " fill-opacity="1" fill-rule="nonzero"/><path fill="#ecebcc" d="M 525.230469 415.582031 C 530.175781 414.027344 530.578125 412.085938 526.839844 407.074219 C 522.859375 410.273438 520.703125 413.261719 525.230469 415.582031 Z M 525.230469 415.582031 " fill-opacity="1" fill-rule="nonzero"/><path fill="#ecebcc" d="M 707.332031 104.105469 C 700.324219 107.964844 705.738281 114.167969 709.355469 111.25 L 709.824219 107.695312 C 709.183594 106.707031 708.246094 105.566406 707.347656 104.105469 Z M 707.332031 104.105469 " fill-opacity="1" fill-rule="nonzero"/><path fill="#ecebcc" d="M 143.902344 715.828125 C 144.292969 714.824219 142.617188 713.027344 141.316406 710.546875 C 133.652344 714.421875 139.832031 721.953125 143.902344 715.828125 Z M 143.902344 715.828125 " fill-opacity="1" fill-rule="nonzero"/><path fill="#ecebcc" d="M 264.070312 621.800781 C 257.265625 623.183594 262.007812 631.421875 268.292969 626.128906 C 266.296875 623.960938 265.277344 621.921875 264.070312 621.800781 Z M 264.070312 621.800781 " fill-opacity="1" fill-rule="nonzero"/><path fill="#ecebcc" d="M 184.476562 367.984375 C 184.546875 371.441406 190.09375 371.777344 191.296875 368.265625 C 191.5 363 181.851562 364.476562 184.476562 367.984375 Z M 184.476562 367.984375 " fill-opacity="1" fill-rule="nonzero"/><path fill="#ecebcc" d="M 303.910156 721.082031 C 304.136719 719.753906 302.742188 718.144531 301.511719 715.492188 C 294.421875 719.042969 299.796875 726.894531 303.910156 721.082031 Z M 303.910156 721.082031 " fill-opacity="1" fill-rule="nonzero"/><path fill="#ecebcc" d="M 608.644531 417.617188 L 613.011719 417.324219 C 612.636719 416.613281 612.128906 415.835938 611.5 414.964844 C 610.238281 415.863281 609.273438 416.746094 608.644531 417.617188 Z M 608.644531 417.617188 " fill-opacity="1" fill-rule="nonzero"/><path fill="#ecebcc" d="M 277.96875 597.574219 C 278.101562 596.277344 276.800781 594.828125 275.621094 592.445312 C 269.070312 595.980469 274.871094 602.640625 277.96875 597.574219 Z M 277.96875 597.574219 " fill-opacity="1" fill-rule="nonzero"/><path fill="#ecebcc" d="M 390.992188 688.734375 C 390.191406 688.332031 388.636719 689.429688 386.4375 690.207031 C 388.984375 697.308594 396.207031 692.632812 390.992188 688.734375 Z M 390.992188 688.734375 " fill-opacity="1" fill-rule="nonzero"/><path fill="#ecebcc" d="M 126.765625 698.007812 C 130.664062 697.296875 130.371094 694.976562 127.917969 691.535156 C 124.542969 693.945312 123.28125 696.15625 126.765625 698.007812 Z M 126.765625 698.007812 " fill-opacity="1" fill-rule="nonzero"/><path fill="#ecebcc" d="M 354.546875 632.882812 C 348.609375 634.222656 352.765625 640.898438 358.003906 636.273438 C 356.394531 634.597656 355.511719 632.910156 354.546875 632.882812 Z M 354.546875 632.882812 " fill-opacity="1" fill-rule="nonzero"/><path fill="#ecebcc" d="M 259.222656 754.6875 L 262.492188 754.433594 C 263.804688 753.386719 263.1875 751.550781 261.621094 748.84375 C 258.777344 750.988281 257.132812 752.890625 259.222656 754.6875 Z M 259.222656 754.6875 " fill-opacity="1" fill-rule="nonzero"/><path fill="#ecebcc" d="M 586.589844 82.558594 C 590.300781 81.40625 589.964844 79.4375 587.230469 76.179688 C 584.335938 78.742188 583.066406 81.113281 586.589844 82.558594 Z M 586.589844 82.558594 " fill-opacity="1" fill-rule="nonzero"/><path fill="#ecebcc" d="M 427.519531 500.871094 C 426.488281 500.628906 425.164062 501.660156 423.125 502.480469 C 425.644531 509.03125 432.320312 503.65625 427.519531 500.871094 Z M 427.519531 500.871094 " fill-opacity="1" fill-rule="nonzero"/><path fill="#ecebcc" d="M 492.523438 87.4375 C 492.644531 86.296875 491.546875 85.023438 490.527344 82.894531 C 484.953125 85.828125 489.28125 92.085938 492.523438 87.4375 Z M 492.523438 87.4375 " fill-opacity="1" fill-rule="nonzero"/><path fill="#ecebcc" d="M 153.257812 623.425781 C 153.457031 622.511719 152.210938 621.265625 151.113281 619.324219 C 145.5 622.390625 150.363281 628.570312 153.257812 623.425781 Z M 153.257812 623.425781 " fill-opacity="1" fill-rule="nonzero"/><path fill="#ecebcc" d="M 629.761719 303.988281 C 632.859375 307.914062 637.574219 305.933594 635.539062 300.785156 C 632.28125 302.582031 631.023438 303.292969 629.761719 303.988281 Z M 629.761719 303.988281 " fill-opacity="1" fill-rule="nonzero"/><path fill="#ecebcc" d="M 301 140.902344 C 298.65625 138.34375 296.820312 136.546875 295.050781 139.507812 C 296.125 143.097656 297.410156 143.085938 301 140.902344 Z M 301 140.902344 " fill-opacity="1" fill-rule="nonzero"/><path fill="#ecebcc" d="M 289.117188 122.492188 C 289.277344 121.5 288.472656 120.347656 287.761719 118.375 C 282.578125 120.964844 286.757812 126.777344 289.117188 122.492188 Z M 289.117188 122.492188 " fill-opacity="1" fill-rule="nonzero"/><path fill="#ecebcc" d="M 413.761719 182.65625 C 414.015625 182.023438 412.96875 180.859375 412.136719 179.199219 C 407.394531 181.878906 411.078125 186.703125 413.761719 182.65625 Z M 413.761719 182.65625 " fill-opacity="1" fill-rule="nonzero"/><path fill="#ecebcc" d="M 238.089844 430.695312 C 233.332031 432.210938 237.515625 437.183594 241.117188 433.082031 C 239.699219 431.902344 238.894531 430.683594 238.089844 430.695312 Z M 238.089844 430.695312 " fill-opacity="1" fill-rule="nonzero"/><path fill="#ecebcc" d="M 403.523438 395.347656 C 399.207031 396.164062 402.34375 401.78125 406.699219 398.203125 C 405.171875 396.753906 404.472656 395.628906 403.523438 395.347656 Z M 403.523438 395.347656 " fill-opacity="1" fill-rule="nonzero"/><path fill="#ecebcc" d="M 305.492188 400.453125 C 304.792969 400.171875 303.640625 401.03125 301.964844 401.660156 C 303.921875 406.816406 309.511719 403.386719 305.492188 400.453125 Z M 305.492188 400.453125 " fill-opacity="1" fill-rule="nonzero"/><path fill="#ecebcc" d="M 345.769531 339.539062 C 348.730469 338.761719 348.785156 337.582031 347.285156 334.417969 C 344.9375 336.324219 343.078125 337.835938 345.769531 339.539062 Z M 345.769531 339.539062 " fill-opacity="1" fill-rule="nonzero"/><path fill="#ecebcc" d="M 430.722656 512.636719 C 426.367188 513.183594 429.089844 518.050781 432.773438 514.875 C 431.808594 513.773438 431.273438 512.636719 430.722656 512.636719 Z M 430.722656 512.636719 " fill-opacity="1" fill-rule="nonzero"/><path fill="#ecebcc" d="M 364.554688 535.910156 C 354.011719 537.546875 361.847656 549.941406 371.417969 541.859375 C 368.039062 538.765625 366.433594 536.136719 364.554688 535.910156 Z M 364.554688 535.910156 " fill-opacity="1" fill-rule="nonzero"/><path fill="#ecebcc" d="M 536.421875 187.597656 C 526.144531 189.367188 533.21875 202.511719 542.234375 193.441406 C 539.488281 190.535156 537.976562 187.625 536.421875 187.597656 Z M 536.421875 187.597656 " fill-opacity="1" fill-rule="nonzero"/><path fill="#ecebcc" d="M 414.09375 463.175781 C 415.125 470.667969 419.722656 468.777344 425.671875 464.703125 C 420.941406 458.621094 417.40625 456.933594 414.09375 463.175781 Z M 414.09375 463.175781 " fill-opacity="1" fill-rule="nonzero"/><path fill="#ecebcc" d="M 133.480469 534.398438 C 136.667969 540.585938 137.054688 543.683594 145.484375 538.683594 C 140.3125 534.503906 137.390625 527.84375 133.480469 534.398438 Z M 133.480469 534.398438 " fill-opacity="1" fill-rule="nonzero"/><path fill="#ecebcc" d="M 418.328125 387.507812 C 415.339844 390.230469 412.808594 391.460938 412.433594 393.175781 C 413.464844 402.410156 425.257812 396.421875 418.328125 387.507812 Z M 418.328125 387.507812 " fill-opacity="1" fill-rule="nonzero"/><path fill="#ecebcc" d="M 480.585938 471.125 C 482.21875 471.429688 484.242188 469.648438 487.457031 468.136719 C 482.769531 458.847656 473.695312 466.566406 480.585938 471.125 Z M 480.585938 471.125 " fill-opacity="1" fill-rule="nonzero"/><path fill="#ecebcc" d="M 293.660156 471.429688 C 295.347656 476.804688 297.464844 477.246094 302.917969 473.1875 C 299.433594 468.859375 296.175781 466.515625 293.660156 471.429688 Z M 293.660156 471.429688 " fill-opacity="1" fill-rule="nonzero"/><path fill="#ecebcc" d="M 239.84375 753.992188 C 240.40625 754.820312 240.917969 755.492188 241.386719 756.054688 L 248.664062 755.492188 C 248.902344 755.289062 249.144531 755.089844 249.398438 754.886719 C 246.652344 749.234375 244.9375 750.976562 239.84375 753.992188 Z M 239.84375 753.992188 " fill-opacity="1" fill-rule="nonzero"/><path fill="#ecebcc" d="M 184.238281 605.132812 C 178.433594 606.113281 179.265625 608.65625 182.414062 613.789062 C 186.113281 610.441406 188.539062 607.625 184.238281 605.132812 Z M 184.238281 605.132812 " fill-opacity="1" fill-rule="nonzero"/><path fill="#ecebcc" d="M 345.140625 108.140625 C 350.125 106.613281 349.871094 104.1875 346.882812 99.253906 C 342.929688 102.792969 340.210938 105.699219 345.140625 108.140625 Z M 345.140625 108.140625 " fill-opacity="1" fill-rule="nonzero"/><path fill="#ecebcc" d="M 289.933594 561.15625 C 282.175781 562.75 288.230469 571.890625 294.328125 565.269531 C 292.265625 563.234375 291.167969 561.222656 289.933594 561.15625 Z M 289.933594 561.15625 " fill-opacity="1" fill-rule="nonzero"/><path fill="#ecebcc" d="M 217.628906 661.117188 C 218.472656 665.40625 221.40625 664.226562 225.078125 661.8125 C 221.851562 657.835938 220.226562 657.578125 217.628906 661.117188 Z M 217.628906 661.117188 " fill-opacity="1" fill-rule="nonzero"/><path fill="#ecebcc" d="M 471.058594 731.492188 L 471.152344 730.515625 C 471.042969 730.808594 471.003906 731.128906 471.058594 731.492188 Z M 471.058594 731.492188 " fill-opacity="1" fill-rule="nonzero"/><path fill="#ecebcc" d="M 200.867188 365.132812 C 201.132812 364.019531 199.996094 362.574219 199.109375 360.363281 C 191.996094 363.109375 197.835938 370.371094 200.867188 365.132812 Z M 200.867188 365.132812 " fill-opacity="1" fill-rule="nonzero"/><path fill="#ecebcc" d="M 163.023438 698.382812 C 165.023438 702.976562 170.140625 699.988281 174.523438 698.222656 C 170.675781 693.316406 165.195312 694.347656 163.023438 698.382812 Z M 163.023438 698.382812 " fill-opacity="1" fill-rule="nonzero"/><path fill="#ecebcc" d="M 147.375 648.601562 C 143.527344 650.023438 143.113281 651.375 145.925781 655.328125 C 148.902344 652.730469 150.953125 650.53125 147.375 648.601562 Z M 147.375 648.601562 " fill-opacity="1" fill-rule="nonzero"/><path fill="#ecebcc" d="M 414.511719 591.855469 C 421.023438 593.316406 415.796875 586.707031 415.074219 585.15625 C 413.050781 587.246094 411.148438 590.003906 414.511719 591.855469 Z M 414.511719 591.855469 " fill-opacity="1" fill-rule="nonzero"/><path fill="#ecebcc" d="M 590.714844 223.203125 C 590.367188 223.914062 591.546875 225.375 592.484375 227.503906 C 598.207031 224.113281 594.480469 218.230469 590.714844 223.203125 Z M 590.714844 223.203125 " fill-opacity="1" fill-rule="nonzero"/><path fill="#ecebcc" d="M 314.402344 717.394531 C 314.132812 718.308594 315.21875 719.605469 316.144531 721.710938 C 321.878906 718.695312 317.523438 712.945312 314.402344 717.394531 Z M 314.402344 717.394531 " fill-opacity="1" fill-rule="nonzero"/><path fill="#ecebcc" d="M 612.515625 214.558594 C 613.589844 214.734375 614.847656 213.863281 616.992188 213.097656 C 614.191406 207.457031 607.855469 212.015625 612.515625 214.558594 Z M 612.515625 214.558594 " fill-opacity="1" fill-rule="nonzero"/><path fill="#ecebcc" d="M 544.835938 347.335938 C 546.550781 350.621094 547.234375 350.808594 550.796875 348.410156 C 548.226562 345.449219 547.488281 344.925781 544.835938 347.335938 Z M 544.835938 347.335938 " fill-opacity="1" fill-rule="nonzero"/><path fill="#ecebcc" d="M 275.125 156.578125 C 271.75 157.371094 272.472656 159.539062 274.605469 162.355469 C 277.285156 159.957031 278.261719 158.039062 275.125 156.578125 Z M 275.125 156.578125 " fill-opacity="1" fill-rule="nonzero"/><path fill="#ecebcc" d="M 314.253906 336.347656 C 310.742188 337.875 310.476562 338.347656 312.566406 342.472656 C 315.367188 339.753906 316.785156 339.21875 314.253906 336.347656 Z M 314.253906 336.347656 " fill-opacity="1" fill-rule="nonzero"/><path fill="#ecebcc" d="M 308.800781 228.550781 C 305.71875 230.464844 304.457031 232.195312 307.394531 234.070312 C 310.621094 233.722656 310.570312 231.628906 308.800781 228.550781 Z M 308.800781 228.550781 " fill-opacity="1" fill-rule="nonzero"/><path fill="#ecebcc" d="M 378.734375 274.65625 C 374.054688 275.757812 377.796875 281.128906 381.960938 277.847656 C 380.488281 276.292969 379.777344 275.074219 378.734375 274.65625 Z M 378.734375 274.65625 " fill-opacity="1" fill-rule="nonzero"/><path fill="#ecebcc" d="M 318.367188 699.84375 C 318.609375 699.265625 317.75 698.234375 317.109375 696.773438 C 312.136719 698.878906 315.914062 703.835938 318.367188 699.84375 Z M 318.367188 699.84375 " fill-opacity="1" fill-rule="nonzero"/><path fill="#ecebcc" d="M 224.449219 757.367188 L 225.734375 757.273438 C 225.292969 757.097656 224.835938 757.152344 224.449219 757.367188 Z M 224.449219 757.367188 " fill-opacity="1" fill-rule="nonzero"/></svg>