<svg xmlns="http://www.w3.org/2000/svg" viewBox="0 0 116 116"><defs><style>.cls-1{fill:#344a71;}</style></defs><title>Asset 6mdpi</title><g id="Layer_2" data-name="Layer 2"><g id="Layer_2-2" data-name="Layer 2"><path class="cls-1" d="M83.7.37A41.39,41.39,0,0,1,97.42,3a26.05,26.05,0,0,1,9.45,6.16A26.05,26.05,0,0,1,113,18.58a41.39,41.39,0,0,1,2.6,13.72c.33,7.29.37,9.87.37,25.7s0,18.41-.37,25.7A41.51,41.51,0,0,1,113,97.43,27.37,27.37,0,0,1,97.42,113a41.39,41.39,0,0,1-13.72,2.6c-7.29.33-9.86.37-25.7.37s-18.41,0-25.7-.37A41.51,41.51,0,0,1,18.57,113a26,26,0,0,1-9.44-6.16A26.05,26.05,0,0,1,3,97.42,41.39,41.39,0,0,1,.37,83.7C0,76.41,0,73.84,0,58S0,39.58.37,32.3A41.39,41.39,0,0,1,3,18.58,26.05,26.05,0,0,1,9.13,9.13,26,26,0,0,1,18.57,3,41.51,41.51,0,0,1,32.3.37C39.58,0,42.16,0,58,0S76.41,0,83.7.37M58,12.89c-15.66,0-18.06,0-25.12.36A28.62,28.62,0,0,0,23.24,15a13,13,0,0,0-5,3.26,13,13,0,0,0-3.26,5,28.82,28.82,0,0,0-1.73,9.64c-.33,7-.36,9.45-.36,25.11s0,18.06.36,25.12A28.51,28.51,0,0,0,15,92.75a13,13,0,0,0,3.26,5,13,13,0,0,0,5,3.26,28.88,28.88,0,0,0,9.64,1.73c7.07.33,9.46.36,25.12.36s18,0,25.12-.36A28.62,28.62,0,0,0,92.76,101a13.27,13.27,0,0,0,5-3.26,13,13,0,0,0,3.26-5,28.88,28.88,0,0,0,1.73-9.64c.33-7.07.36-9.46.36-25.12s0-18-.36-25.12A28.51,28.51,0,0,0,101,23.25a13.07,13.07,0,0,0-3.26-5,13.07,13.07,0,0,0-5-3.26,28.82,28.82,0,0,0-9.64-1.73c-7.06-.33-9.45-.36-25.11-.36m0,75.18a30.07,30.07,0,1,1,0-60.14h0a30.07,30.07,0,0,1,0,60.14m0-12.88a17.19,17.19,0,0,0,0-34.38h0a17.19,17.19,0,1,0,0,34.38M88.07,34.37a6.45,6.45,0,1,1,6.44-6.45,6.45,6.45,0,0,1-6.44,6.45"/></g></g></svg>