<svg xmlns="http://www.w3.org/2000/svg" viewBox="0 0 124.33 124.34"><defs><style>.cls-1{fill:#e0dc01;}.cls-2{fill:#fff;}</style></defs><title>Asset 3mdpi</title><g id="Layer_2" data-name="Layer 2"><g id="Layer_2-2" data-name="Layer 2"><path class="cls-1" d="M108.84,121.84A12.89,12.89,0,0,1,99.65,118L62.17,80.55,24.69,118A13,13,0,0,1,6.31,99.65L43.78,62.17,6.31,24.69A13,13,0,1,1,24.69,6.31L62.17,43.78,99.65,6.31A13,13,0,0,1,118,24.69L80.55,62.17,118,99.65a13,13,0,0,1-9.19,22.19Z"/><path class="cls-2" d="M108.84,5a10.5,10.5,0,0,1,7.42,17.92L77,62.17l39.24,39.24a10.5,10.5,0,1,1-14.85,14.85L62.17,77,22.92,116.26A10.5,10.5,0,1,1,8.08,101.41L47.32,62.17,8.08,22.92A10.49,10.49,0,1,1,22.92,8.08L62.17,47.32,101.41,8.08A10.48,10.48,0,0,1,108.84,5m0-5a15.39,15.39,0,0,0-11,4.54L62.17,40.25,26.46,4.54A15.5,15.5,0,0,0,4.54,26.46L40.25,62.17,4.54,97.88A15.5,15.5,0,1,0,26.46,119.8L62.17,84.09,97.88,119.8A15.5,15.5,0,1,0,119.8,97.88L84.09,62.17,119.8,26.46A15.5,15.5,0,0,0,108.84,0Z"/></g></g></svg>