<svg xmlns="http://www.w3.org/2000/svg" viewBox="0 0 129.56 126.36"><defs><style>.cls-1{fill:#344a71;}</style></defs><title>Asset 5mdpi</title><g id="Layer_2" data-name="Layer 2"><g id="Layer_2-2" data-name="Layer 2"><path class="cls-1" d="M64.77,0A64.78,64.78,0,0,0,44.3,126.24c3.24.6,4.42-1.4,4.42-3.12,0-1.53,0-5.6-.08-11-18,3.91-21.83-8.69-21.83-8.69-2.94-7.48-7.19-9.48-7.19-9.48-5.88-4,.44-3.93.44-3.93,6.51.46,9.93,6.68,9.93,6.68,5.77,9.89,15.16,7,18.85,5.38.59-4.18,2.27-7,4.11-8.66-14.38-1.63-29.5-7.19-29.5-32A25,25,0,0,1,30.12,44c-.67-1.64-2.89-8.23.63-17.14,0,0,5.44-1.75,17.82,6.64a61.39,61.39,0,0,1,32.43,0c12.37-8.39,17.79-6.64,17.79-6.64,3.54,8.91,1.32,15.5.65,17.14a25,25,0,0,1,6.66,17.38c0,24.89-15.15,30.37-29.58,32,2.33,2,4.4,6,4.4,12,0,8.65-.08,15.64-.08,17.76,0,1.74,1.17,3.75,4.45,3.12A64.79,64.79,0,0,0,64.77,0"/></g></g></svg>